<svg width="72" height="72" viewBox="0 0 72 72" fill="none" xmlns="http://www.w3.org/2000/svg">
<path d="M36 33.84C34.812 33.84 33.84 34.812 33.84 36C33.84 37.188 34.812 38.16 36 38.16C37.188 38.16 38.16 37.188 38.16 36C38.16 34.812 37.188 33.84 36 33.84ZM37.08 14.4C46.8 14.4 47.0376 22.1112 41.94 24.66C39.8016 25.7184 38.8512 27.9864 38.4408 29.9952C39.4776 30.4272 40.3848 31.0968 41.076 31.9608C49.068 27.6408 57.6648 29.3472 57.6648 37.08C57.6648 46.8 49.9536 47.016 47.4048 41.8968C46.3248 39.7584 44.0352 38.808 42.0264 38.3976C41.5944 39.4344 40.9248 40.32 40.0608 41.0544C44.3592 49.0248 42.6528 57.6 34.92 57.6C25.2 57.6 25.0056 49.8672 30.1032 47.3184C32.22 46.26 33.1704 44.0136 33.6024 42.0264C32.544 41.5944 31.6152 40.9032 30.924 40.0392C22.9536 44.316 14.4 42.6312 14.4 34.92C14.4 25.2 22.0896 24.9624 24.6384 30.0816C25.7184 32.22 27.9864 33.1488 29.9952 33.5592C30.4056 32.5224 31.0968 31.6152 31.9824 30.924C27.684 22.9536 29.3904 14.4 37.08 14.4Z" fill="#1C1F23"/>
</svg>
