<svg width="72" height="72" viewBox="0 0 72 72" fill="none" xmlns="http://www.w3.org/2000/svg">
<path d="M53.28 57.6L44.9424 54.252C46.4544 50.9472 47.5344 47.5344 48.204 44.0568L53.28 57.6ZM27.0576 54.252L18.72 57.6L23.796 44.0568C24.4656 47.5344 25.5456 50.9472 27.0576 54.252ZM36 14.4C36 14.4 46.8 18.72 46.8 36C46.8 42.696 45.18 48.42 43.1928 52.9128C42.48 54.468 40.9464 55.44 39.24 55.44H32.76C31.0536 55.44 29.52 54.468 28.8072 52.9128C26.8416 48.42 25.2 42.696 25.2 36C25.2 18.72 36 14.4 36 14.4ZM36 36C38.376 36 40.32 34.056 40.32 31.68C40.32 29.304 38.376 27.36 36 27.36C33.624 27.36 31.68 29.304 31.68 31.68C31.68 34.056 33.624 36 36 36Z" fill="#1C1F23"/>
</svg>
