<svg width="72" height="72" viewBox="0 0 72 72" fill="none" xmlns="http://www.w3.org/2000/svg">
<path d="M49.1428 18.527L50.3083 25.9022L57.0147 29.3223L53.6328 36.0096L57.0338 42.6969L50.2701 46.117L49.1046 53.4921L41.6721 52.3266L36.3796 57.6L31.0679 52.2502L23.6928 53.473L22.5082 46.0405L15.84 42.6396L19.241 35.9523L15.8591 29.3223L22.5655 25.864L23.731 18.5462L31.1253 19.769L36.4369 14.4L41.7294 19.6926L49.1428 18.527ZM31.6603 26.4563C30.9001 26.4563 30.1712 26.7582 29.6337 27.2957C29.0962 27.8332 28.7943 28.5622 28.7943 29.3223C28.7943 30.0824 29.0962 30.8114 29.6337 31.3488C30.1712 31.8863 30.9001 32.1883 31.6603 32.1883C32.4204 32.1883 33.1493 31.8863 33.6868 31.3488C34.2243 30.8114 34.5262 30.0824 34.5262 29.3223C34.5262 28.5622 34.2243 27.8332 33.6868 27.2957C33.1493 26.7582 32.4204 26.4563 31.6603 26.4563ZM41.2135 39.8309C40.4534 39.8309 39.7245 40.1329 39.187 40.6703C38.6495 41.2078 38.3476 41.9368 38.3476 42.6969C38.3476 43.457 38.6495 44.186 39.187 44.7234C39.7245 45.2609 40.4534 45.5629 41.2135 45.5629C41.9737 45.5629 42.7026 45.2609 43.2401 44.7234C43.7776 44.186 44.0795 43.457 44.0795 42.6969C44.0795 41.9368 43.7776 41.2078 43.2401 40.6703C42.7026 40.1329 41.9737 39.8309 41.2135 39.8309ZM29.5776 45.5629L45.9902 29.1503L43.2962 26.4563L26.8836 42.8688L29.5776 45.5629Z" fill="#1C1F23"/>
</svg>
