<svg width="72" height="72" viewBox="0 0 72 72" fill="none" xmlns="http://www.w3.org/2000/svg">
<path d="M36.1354 43.56C34.1303 43.56 32.2074 42.7635 30.7896 41.3458C29.3718 39.928 28.5753 38.0051 28.5753 36C28.5753 33.995 29.3718 32.0721 30.7896 30.6543C32.2074 29.2365 34.1303 28.44 36.1354 28.44C38.1404 28.44 40.0633 29.2365 41.4811 30.6543C42.8989 32.0721 43.6954 33.995 43.6954 36C43.6954 38.0051 42.8989 39.928 41.4811 41.3458C40.0633 42.7635 38.1404 43.56 36.1354 43.56ZM52.1842 38.0952C52.2705 37.404 52.3354 36.7128 52.3354 36C52.3354 35.2872 52.2705 34.5744 52.1842 33.84L56.7418 30.3192C57.1522 29.9952 57.2601 29.412 57.0009 28.9368L52.681 21.4632C52.4217 20.988 51.8385 20.7936 51.3633 20.988L45.9849 23.148C44.8617 22.3056 43.6954 21.5712 42.3346 21.0312L41.5354 15.3072C41.4489 14.7888 40.9953 14.4 40.4554 14.4H31.8153C31.2754 14.4 30.8217 14.7888 30.7353 15.3072L29.9362 21.0312C28.5754 21.5712 27.409 22.3056 26.2858 23.148L20.9074 20.988C20.4322 20.7936 19.849 20.988 19.5898 21.4632L15.2698 28.9368C14.989 29.412 15.1186 29.9952 15.529 30.3192L20.0866 33.84C20.0002 34.5744 19.9354 35.2872 19.9354 36C19.9354 36.7128 20.0002 37.404 20.0866 38.0952L15.529 41.6808C15.1186 42.0048 14.989 42.588 15.2698 43.0632L19.5898 50.5368C19.849 51.012 20.4322 51.1848 20.9074 51.012L26.2858 48.8304C27.409 49.6944 28.5754 50.4288 29.9362 50.9688L30.7353 56.6928C30.8217 57.2112 31.2754 57.6 31.8153 57.6H40.4554C40.9953 57.6 41.4489 57.2112 41.5354 56.6928L42.3346 50.9688C43.6954 50.4072 44.8617 49.6944 45.9849 48.8304L51.3633 51.012C51.8385 51.1848 52.4217 51.012 52.681 50.5368L57.0009 43.0632C57.2601 42.588 57.1522 42.0048 56.7418 41.6808L52.1842 38.0952Z" fill="#1C1F23"/>
</svg>
